<mxfile host="app.diagrams.net" modified="2023-11-09T14:16:30.275Z" agent="Mozilla/5.0 (X11; Ubuntu; Linux x86_64; rv:109.0) Gecko/20100101 Firefox/119.0" etag="CUJozK9GTHxbgXwdpshi" version="22.1.0" type="device">
  <diagram name="Page-1" id="fIDpOyRQobxb_MCxYIHS">
    <mxGraphModel dx="1434" dy="911" grid="1" gridSize="5" guides="1" tooltips="1" connect="1" arrows="1" fold="1" page="1" pageScale="1" pageWidth="850" pageHeight="1100" math="0" shadow="0">
      <root>
        <mxCell id="0" />
        <mxCell id="1" parent="0" />
        <mxCell id="QJhU5oRQL1Jb571ihN6a-100" value="" style="edgeStyle=orthogonalEdgeStyle;rounded=0;orthogonalLoop=1;jettySize=auto;html=1;entryX=1;entryY=0.5;entryDx=0;entryDy=0;exitX=0;exitY=0.5;exitDx=0;exitDy=0;" parent="1" source="QJhU5oRQL1Jb571ihN6a-107" target="QJhU5oRQL1Jb571ihN6a-115" edge="1">
          <mxGeometry relative="1" as="geometry">
            <mxPoint x="385" y="300" as="sourcePoint" />
            <Array as="points">
              <mxPoint x="460" y="300" />
              <mxPoint x="460" y="345" />
            </Array>
          </mxGeometry>
        </mxCell>
        <mxCell id="QJhU5oRQL1Jb571ihN6a-102" value="" style="edgeStyle=orthogonalEdgeStyle;rounded=0;orthogonalLoop=1;jettySize=auto;html=1;" parent="1" source="QJhU5oRQL1Jb571ihN6a-103" target="QJhU5oRQL1Jb571ihN6a-106" edge="1">
          <mxGeometry relative="1" as="geometry">
            <Array as="points">
              <mxPoint x="665" y="340" />
              <mxPoint x="665" y="375" />
            </Array>
          </mxGeometry>
        </mxCell>
        <mxCell id="QJhU5oRQL1Jb571ihN6a-103" value="TX: beacon" style="rounded=0;whiteSpace=wrap;html=1;rotation=0;" parent="1" vertex="1">
          <mxGeometry x="710" y="315" width="60" height="50" as="geometry" />
        </mxCell>
        <mxCell id="AU_xRi0dPdYaQ4CG5GuC-1" style="edgeStyle=orthogonalEdgeStyle;rounded=0;orthogonalLoop=1;jettySize=auto;html=1;exitX=1;exitY=0.5;exitDx=0;exitDy=0;entryX=0;entryY=0.25;entryDx=0;entryDy=0;" edge="1" parent="1" source="QJhU5oRQL1Jb571ihN6a-105" target="QJhU5oRQL1Jb571ihN6a-132">
          <mxGeometry relative="1" as="geometry" />
        </mxCell>
        <mxCell id="QJhU5oRQL1Jb571ihN6a-105" value="&lt;div&gt;connectedIdle&lt;/div&gt;" style="rounded=1;whiteSpace=wrap;html=1;fillColor=#f5f5f5;fontColor=#333333;strokeColor=#666666;" parent="1" vertex="1">
          <mxGeometry x="460" y="115" width="120" height="60" as="geometry" />
        </mxCell>
        <mxCell id="QJhU5oRQL1Jb571ihN6a-106" value="transmitting&lt;br&gt;Beacon" style="rounded=1;whiteSpace=wrap;html=1;fillColor=#f5f5f5;fontColor=#333333;strokeColor=#666666;" parent="1" vertex="1">
          <mxGeometry x="500" y="345" width="120" height="60" as="geometry" />
        </mxCell>
        <mxCell id="QJhU5oRQL1Jb571ihN6a-107" value="transmitting CRW&lt;br&gt;Beacon" style="rounded=1;whiteSpace=wrap;html=1;fillColor=#f5f5f5;fontColor=#333333;strokeColor=#666666;" parent="1" vertex="1">
          <mxGeometry x="500" y="270" width="120" height="60" as="geometry" />
        </mxCell>
        <mxCell id="QJhU5oRQL1Jb571ihN6a-109" value="" style="edgeStyle=orthogonalEdgeStyle;rounded=0;orthogonalLoop=1;jettySize=auto;html=1;" parent="1" edge="1">
          <mxGeometry relative="1" as="geometry">
            <mxPoint x="665" y="340" as="sourcePoint" />
            <mxPoint x="620" y="300" as="targetPoint" />
            <Array as="points">
              <mxPoint x="665" y="300" />
            </Array>
          </mxGeometry>
        </mxCell>
        <mxCell id="QJhU5oRQL1Jb571ihN6a-111" style="edgeStyle=orthogonalEdgeStyle;rounded=0;orthogonalLoop=1;jettySize=auto;html=1;exitX=0.5;exitY=0;exitDx=0;exitDy=0;entryX=0.5;entryY=1;entryDx=0;entryDy=0;" parent="1" source="QJhU5oRQL1Jb571ihN6a-113" target="QJhU5oRQL1Jb571ihN6a-128" edge="1">
          <mxGeometry relative="1" as="geometry" />
        </mxCell>
        <mxCell id="AU_xRi0dPdYaQ4CG5GuC-5" style="edgeStyle=orthogonalEdgeStyle;rounded=0;orthogonalLoop=1;jettySize=auto;html=1;exitX=0.5;exitY=1;exitDx=0;exitDy=0;entryX=1;entryY=0.5;entryDx=0;entryDy=0;" edge="1" parent="1" source="QJhU5oRQL1Jb571ihN6a-113" target="QJhU5oRQL1Jb571ihN6a-124">
          <mxGeometry relative="1" as="geometry" />
        </mxCell>
        <mxCell id="QJhU5oRQL1Jb571ihN6a-113" value="receivingNew&lt;br&gt;ChildNodes" style="rounded=1;whiteSpace=wrap;html=1;fillColor=#f5f5f5;fontColor=#333333;strokeColor=#666666;" parent="1" vertex="1">
          <mxGeometry x="203.75" y="315" width="120" height="60" as="geometry" />
        </mxCell>
        <mxCell id="QJhU5oRQL1Jb571ihN6a-114" value="" style="edgeStyle=orthogonalEdgeStyle;rounded=0;orthogonalLoop=1;jettySize=auto;html=1;" parent="1" source="QJhU5oRQL1Jb571ihN6a-115" target="QJhU5oRQL1Jb571ihN6a-113" edge="1">
          <mxGeometry relative="1" as="geometry" />
        </mxCell>
        <mxCell id="QJhU5oRQL1Jb571ihN6a-115" value="RX: listen for new children" style="rounded=0;whiteSpace=wrap;html=1;rotation=0;" parent="1" vertex="1">
          <mxGeometry x="345" y="320" width="60" height="50" as="geometry" />
        </mxCell>
        <mxCell id="QJhU5oRQL1Jb571ihN6a-116" value="&lt;div&gt;If transmisson&lt;/div&gt;&lt;div&gt;&amp;nbsp;done&lt;/div&gt;" style="text;html=1;align=left;verticalAlign=middle;resizable=0;points=[];autosize=1;" parent="1" vertex="1">
          <mxGeometry x="415" y="340" width="95" height="45" as="geometry" />
        </mxCell>
        <mxCell id="QJhU5oRQL1Jb571ihN6a-117" value="&lt;div&gt;If CRW&amp;nbsp;&lt;/div&gt;&lt;div&gt;window &lt;br&gt;&lt;/div&gt;&lt;div&gt;time&amp;nbsp;&lt;/div&gt;&lt;div&gt;expired&lt;/div&gt;" style="text;html=1;align=left;verticalAlign=middle;resizable=0;points=[];autosize=1;" parent="1" vertex="1">
          <mxGeometry x="155" y="275" width="65" height="75" as="geometry" />
        </mxCell>
        <mxCell id="QJhU5oRQL1Jb571ihN6a-122" value="&lt;div&gt;If node&amp;nbsp;&lt;/div&gt;&lt;div&gt;detected &lt;br&gt;&lt;/div&gt;&lt;div&gt;(connnection&amp;nbsp;&lt;/div&gt;&lt;div&gt;request)&lt;/div&gt;" style="text;html=1;align=left;verticalAlign=middle;resizable=0;points=[];autosize=1;" parent="1" vertex="1">
          <mxGeometry x="270" y="390" width="95" height="75" as="geometry" />
        </mxCell>
        <mxCell id="QJhU5oRQL1Jb571ihN6a-142" style="edgeStyle=orthogonalEdgeStyle;rounded=0;orthogonalLoop=1;jettySize=auto;html=1;exitX=0.5;exitY=0;exitDx=0;exitDy=0;entryX=0.5;entryY=1;entryDx=0;entryDy=0;" parent="1" source="QJhU5oRQL1Jb571ihN6a-124" target="QJhU5oRQL1Jb571ihN6a-136" edge="1">
          <mxGeometry relative="1" as="geometry" />
        </mxCell>
        <mxCell id="QJhU5oRQL1Jb571ihN6a-124" value="dataQUEUE the uplink OTAARegReq + save the potential Child" style="rounded=0;whiteSpace=wrap;html=1;rotation=0;" parent="1" vertex="1">
          <mxGeometry x="112.5" y="405" width="130" height="50" as="geometry" />
        </mxCell>
        <mxCell id="QJhU5oRQL1Jb571ihN6a-143" style="edgeStyle=orthogonalEdgeStyle;rounded=0;orthogonalLoop=1;jettySize=auto;html=1;exitX=0.5;exitY=0;exitDx=0;exitDy=0;entryX=0;entryY=0.5;entryDx=0;entryDy=0;" parent="1" source="QJhU5oRQL1Jb571ihN6a-128" target="QJhU5oRQL1Jb571ihN6a-105" edge="1">
          <mxGeometry relative="1" as="geometry" />
        </mxCell>
        <mxCell id="QJhU5oRQL1Jb571ihN6a-128" value="QUEUE new&amp;nbsp; beacon time" style="rounded=0;whiteSpace=wrap;html=1;" parent="1" vertex="1">
          <mxGeometry x="222.5" y="185" width="82.5" height="35" as="geometry" />
        </mxCell>
        <mxCell id="QJhU5oRQL1Jb571ihN6a-129" value="If CRW time" style="text;html=1;align=left;verticalAlign=middle;resizable=0;points=[];autosize=1;" parent="1" vertex="1">
          <mxGeometry x="630" y="277.5" width="85" height="30" as="geometry" />
        </mxCell>
        <mxCell id="QJhU5oRQL1Jb571ihN6a-130" value="If not CRW time" style="text;html=1;align=left;verticalAlign=middle;resizable=0;points=[];autosize=1;" parent="1" vertex="1">
          <mxGeometry x="630" y="370" width="105" height="30" as="geometry" />
        </mxCell>
        <mxCell id="AU_xRi0dPdYaQ4CG5GuC-2" style="edgeStyle=orthogonalEdgeStyle;rounded=0;orthogonalLoop=1;jettySize=auto;html=1;exitX=0.75;exitY=1;exitDx=0;exitDy=0;entryX=0.5;entryY=0;entryDx=0;entryDy=0;" edge="1" parent="1" source="QJhU5oRQL1Jb571ihN6a-132" target="QJhU5oRQL1Jb571ihN6a-103">
          <mxGeometry relative="1" as="geometry" />
        </mxCell>
        <mxCell id="QJhU5oRQL1Jb571ihN6a-132" value="&amp;nbsp;Build a beacon packet &amp;amp;&amp;amp; check all&amp;nbsp;children data queues on current SF &amp;amp;&amp;amp; agregate the data frames to the packet" style="rounded=0;whiteSpace=wrap;html=1;rotation=0;" parent="1" vertex="1">
          <mxGeometry x="620" y="125" width="160" height="80" as="geometry" />
        </mxCell>
        <mxCell id="QJhU5oRQL1Jb571ihN6a-133" style="edgeStyle=orthogonalEdgeStyle;rounded=0;orthogonalLoop=1;jettySize=auto;html=1;exitX=0.5;exitY=0;exitDx=0;exitDy=0;entryX=1;entryY=0.5;entryDx=0;entryDy=0;" parent="1" source="QJhU5oRQL1Jb571ihN6a-107" target="QJhU5oRQL1Jb571ihN6a-128" edge="1">
          <mxGeometry relative="1" as="geometry" />
        </mxCell>
        <mxCell id="QJhU5oRQL1Jb571ihN6a-134" value="If transmisson not done" style="text;html=1;align=left;verticalAlign=middle;resizable=0;points=[];autosize=1;" parent="1" vertex="1">
          <mxGeometry x="325" y="180" width="145" height="30" as="geometry" />
        </mxCell>
        <mxCell id="AU_xRi0dPdYaQ4CG5GuC-6" style="edgeStyle=orthogonalEdgeStyle;rounded=0;orthogonalLoop=1;jettySize=auto;html=1;exitX=1;exitY=0.5;exitDx=0;exitDy=0;entryX=0;entryY=0.5;entryDx=0;entryDy=0;" edge="1" parent="1" source="QJhU5oRQL1Jb571ihN6a-136" target="QJhU5oRQL1Jb571ihN6a-113">
          <mxGeometry relative="1" as="geometry" />
        </mxCell>
        <mxCell id="QJhU5oRQL1Jb571ihN6a-136" value="RX: listen for new children" style="rounded=0;whiteSpace=wrap;html=1;rotation=0;" parent="1" vertex="1">
          <mxGeometry x="95" y="320" width="60" height="50" as="geometry" />
        </mxCell>
        <mxCell id="QJhU5oRQL1Jb571ihN6a-137" style="edgeStyle=orthogonalEdgeStyle;rounded=0;orthogonalLoop=1;jettySize=auto;html=1;exitX=0.75;exitY=0;exitDx=0;exitDy=0;entryX=0.5;entryY=1;entryDx=0;entryDy=0;" parent="1" source="QJhU5oRQL1Jb571ihN6a-138" target="QJhU5oRQL1Jb571ihN6a-103" edge="1">
          <mxGeometry relative="1" as="geometry" />
        </mxCell>
        <mxCell id="QJhU5oRQL1Jb571ihN6a-138" value="&amp;nbsp;Put the node into children&#39;s list &amp;amp;&amp;amp; append info about its time slot" style="rounded=0;whiteSpace=wrap;html=1;rotation=0;fillColor=#FFFFFF;strokeColor=#000000;" parent="1" vertex="1">
          <mxGeometry x="620" y="415" width="160" height="65" as="geometry" />
        </mxCell>
        <mxCell id="QJhU5oRQL1Jb571ihN6a-139" style="edgeStyle=orthogonalEdgeStyle;rounded=0;orthogonalLoop=1;jettySize=auto;html=1;entryX=1;entryY=0.5;entryDx=0;entryDy=0;exitX=1;exitY=0.5;exitDx=0;exitDy=0;" parent="1" source="QJhU5oRQL1Jb571ihN6a-132" target="QJhU5oRQL1Jb571ihN6a-138" edge="1">
          <mxGeometry relative="1" as="geometry">
            <mxPoint x="880" y="462.5" as="sourcePoint" />
          </mxGeometry>
        </mxCell>
        <mxCell id="QJhU5oRQL1Jb571ihN6a-140" value="&lt;div&gt;If data == Child confirmation &lt;br&gt;&lt;/div&gt;&lt;div&gt;for my potential child&lt;/div&gt;" style="text;whiteSpace=wrap;html=1;" parent="1" vertex="1">
          <mxGeometry x="787.5" y="450" width="112.5" height="40" as="geometry" />
        </mxCell>
        <mxCell id="QJhU5oRQL1Jb571ihN6a-144" value="&lt;div&gt;If CRW window &lt;br&gt;&lt;/div&gt;&lt;div&gt;time expired&lt;/div&gt;" style="text;html=1;align=left;verticalAlign=middle;resizable=0;points=[];autosize=1;" parent="1" vertex="1">
          <mxGeometry x="265" y="245" width="105" height="45" as="geometry" />
        </mxCell>
      </root>
    </mxGraphModel>
  </diagram>
</mxfile>
